<svg width="52" height="52" viewBox="0 0 52 52" fill="none" xmlns="http://www.w3.org/2000/svg">
<path d="M48.3999 20.0804V29.6804C43.5999 29.0404 42.9599 22.6404 35.9199 22.6404C28.5599 22.6404 21.3599 38.8004 15.4399 38.8004C9.0399 38.8004 7.4399 32.7204 3.5999 31.6004V10.9604C3.5999 6.96039 6.9599 3.60039 10.9599 3.60039H33.3599V0.400391H10.7999C5.0399 0.400391 0.399902 5.04039 0.399902 10.8004V41.0404C0.399902 46.8004 5.0399 51.4404 10.7999 51.4404H41.0399C46.7999 51.4404 51.4399 46.8004 51.4399 41.0404V20.0804H48.3999Z" fill="#606060"/>
<path d="M9.83984 17.3595C9.83984 20.7195 12.5598 23.2795 15.7598 23.2795C18.9598 23.2795 21.6798 20.5595 21.6798 17.3595C21.6798 14.1595 18.9598 11.4395 15.7598 11.4395C12.5598 11.4395 9.83984 14.1595 9.83984 17.3595Z" fill="#606060"/>
<path d="M42.32 20.2404L50.32 12.2404L46.8 9.20039L44.56 11.4404V0.400391H40.08V11.4404L37.84 9.20039L34.48 12.0804" fill="#606060"/>
</svg>